# Blender v2.93.1 OBJ File: ''
# www.blender.org
mtllib 00.mtl
o Cylinder_Cylinder.001
v -2.826062 3.978951 23.913122
v -3.756374 4.679794 0.855359
v -4.184172 1.339315 23.708637
v -4.673210 2.005339 0.644274
v -4.757946 -1.920937 23.446692
v -4.754686 -1.717005 0.340326
v -4.338431 -5.344397 23.162949
v -4.089023 -4.349460 0.119269
v -3.212573 -7.977486 22.937883
v -1.812985 -7.405205 -0.150504
v -1.236148 -9.727064 22.777899
v 0.405446 -7.822899 -0.203545
v 1.009841 -9.701075 22.760935
v 2.577662 -6.257706 -0.093912
v 2.692365 -8.256512 22.864859
v 3.998282 -5.583037 23.072559
v 4.254198 -1.154942 0.309757
v 4.389885 -1.599504 23.395243
v 4.149337 1.532340 0.530571
v 3.828557 1.269724 23.634834
v 3.413884 4.202973 0.755390
v 2.996753 3.110956 23.792593
v 2.156702 6.150563 0.925467
v 1.915220 4.408718 23.907995
v 0.429678 7.290767 1.033462
v 0.423622 5.237558 23.988506
v -1.418433 7.123106 1.035450
v -1.093554 5.126506 23.992313
v -2.763943 6.143551 0.966718
v -3.202772 -6.016365 -0.025035
v 3.790435 -3.730369 0.102530
vt 0.103647 0.000012
vt 0.061645 1.000012
vt 0.030750 0.000012
vt 0.018624 1.000012
vt 0.001991 0.000012
vt 0.969753 -0.000010
vt 0.933598 0.999989
vt 0.898318 -0.000010
vt 0.871466 0.999989
vt 0.828047 -0.000010
vt 0.772212 0.999989
vt 0.757945 -0.000010
vt 0.703320 0.999989
vt 0.685824 -0.000010
vt 0.617841 0.999989
vt 0.616496 -0.000010
vt 0.546769 -0.000010
vt 0.503804 0.999989
vt 0.472667 -0.000010
vt 0.450543 0.999989
vt 0.408401 -0.000010
vt 0.386222 0.999989
vt 0.339561 -0.000001
vt 0.279074 1.000012
vt 0.266353 0.000012
vt 0.223772 1.000012
vt 0.220631 0.000012
vt 0.163598 1.000012
vt 0.171572 0.000012
vt 0.109733 1.000012
vt 0.993034 0.999989
vt 0.823339 0.999989
vt 0.550891 0.999989
vt 0.289495 0.956047
vt 0.287460 0.947292
vt 0.286450 0.934326
vt 0.287151 0.921171
vt 0.289387 0.910789
vt 0.292832 0.903310
vt 0.296631 0.900373
vt 0.300541 0.901555
vt 0.304665 0.908350
vt 0.307862 0.922325
vt 0.308405 0.938171
vt 0.307180 0.949243
vt 0.305191 0.956861
vt 0.301694 0.963502
vt 0.296357 0.965666
vt 0.292058 0.961949
vt 0.314512 0.170949
vt 0.319828 0.116708
vt 0.328707 0.082257
vt 0.340137 0.057810
vt 0.356050 0.043730
vt 0.372103 0.044901
vt 0.389866 0.069572
vt 0.404718 0.117693
vt 0.410040 0.179275
vt 0.406243 0.243553
vt 0.394060 0.291948
vt 0.373311 0.323807
vt 0.349820 0.322905
vt 0.331907 0.296613
vt 0.318826 0.244963
vn -0.5576 0.4468 0.6996
vn -0.6620 0.3813 -0.6452
vn -0.6927 0.1776 0.6991
vn -0.7303 0.1841 -0.6578
vn -0.7310 -0.0372 0.6813
vn -0.7336 -0.0272 -0.6790
vn -0.7062 -0.2455 0.6641
vn -0.6870 -0.2053 -0.6970
vn -0.6050 -0.4911 0.6267
vn -0.3628 -0.6151 -0.7000
vn -0.2671 -0.7739 0.5743
vn 0.1637 -0.7011 -0.6940
vn 0.2774 -0.7706 0.5738
vn 0.5744 -0.4255 -0.6993
vn 0.5973 -0.5091 0.6197
vn 0.7186 -0.2570 0.6462
vn 0.7225 0.0059 -0.6914
vn 0.7390 -0.0201 0.6734
vn 0.7177 0.1679 -0.6758
vn 0.7001 0.1637 0.6951
vn 0.6698 0.3551 -0.6521
vn 0.6268 0.3298 0.7059
vn 0.5283 0.5796 -0.6204
vn 0.4800 0.5121 0.7123
vn 0.1863 0.7968 -0.5748
vn 0.1657 0.6858 0.7087
vn -0.2701 0.7627 -0.5876
vn -0.2418 0.6565 0.7145
vn -0.5389 0.5689 -0.6212
vn -0.5970 -0.3796 -0.7068
vn 0.6933 -0.1694 -0.7005
usemtl phong4SG.001
s 1
f 1/1/1 2/2/2 3/3/3
f 4/4/4 5/5/5 3/3/3
f 5/6/5 6/7/6 7/8/7
f 8/9/8 9/10/9 7/8/7
f 10/11/10 11/12/11 9/10/9
f 12/13/12 13/14/13 11/12/11
f 13/14/13 14/15/14 15/16/15
f 14/15/14 16/17/16 15/16/15
f 17/18/17 18/19/18 16/17/16
f 19/20/19 20/21/20 18/19/18
f 21/22/21 22/23/22 20/21/20
f 23/24/23 24/25/24 22/23/22
f 25/26/25 26/27/26 24/25/24
f 27/28/27 1/1/1 28/29/28
f 29/30/29 2/2/2 1/1/1
f 2/2/2 4/4/4 3/3/3
f 4/31/4 6/7/6 5/6/5
f 6/7/6 8/9/8 7/8/7
f 8/9/8 30/32/30 9/10/9
f 30/32/30 10/11/10 9/10/9
f 10/11/10 12/13/12 11/12/11
f 12/13/12 14/15/14 13/14/13
f 14/15/14 31/33/31 16/17/16
f 31/33/31 17/18/17 16/17/16
f 17/18/17 19/20/19 18/19/18
f 19/20/19 21/22/21 20/21/20
f 21/22/21 23/24/23 22/23/22
f 23/24/23 25/26/25 24/25/24
f 27/28/27 29/30/29 1/1/1
f 29/34/29 27/35/27 25/36/25 23/37/23 21/38/21 19/39/19 17/40/17 31/41/31 14/42/14 12/43/12 10/44/10 30/45/30 8/46/8 6/47/6 4/48/4 2/49/2
f 18/50/18 20/51/20 22/52/22 24/53/24 26/54/26 28/55/28 1/56/1 3/57/3 5/58/5 7/59/7 9/60/9 11/61/11 13/62/13 15/63/15 16/64/16
f 28/29/28 26/27/26 25/26/25 27/28/27
