# Blender v2.93.4 OBJ File: ''
# www.blender.org
mtllib 10.mtl
o Cube.002
v 0.642676 -19.287075 9.806071
v 8.635403 9.988687 9.806072
v -5.654658 16.924515 10.732824
v -13.647385 -12.351247 10.732822
v -0.245072 -18.856197 -5.696460
v 7.747654 10.419564 -5.696459
v -14.535132 -11.920369 -4.769708
v -6.542406 17.355391 -4.769707
vt 1.000000 0.000000
vt 1.000000 1.000000
vt 0.000000 1.000000
vt 0.000000 0.000000
vt 1.000000 0.000000
vt 1.000000 1.000000
vt 0.000000 1.000000
vt 0.000000 0.000000
vt 1.000000 0.000000
vt 1.000000 1.000000
vt 0.000000 1.000000
vt 0.000000 0.000000
vt 1.000000 0.000000
vt 1.000000 1.000000
vt 0.000000 1.000000
vt 0.000000 0.000000
vt 1.000000 0.000000
vt 0.000000 0.000000
vt 1.000000 1.000000
vt 0.000000 1.000000
vn 0.0572 -0.0156 0.9982
vn 0.9628 -0.2629 -0.0624
vn -0.0572 0.0156 -0.9982
vn -0.9628 0.2629 0.0624
vn 0.4366 0.8996 0.0000
vn -0.4366 -0.8996 0.0000
usemtl default.002
s 1
f 1/1/1 2/2/1 3/3/1 4/4/1
f 5/5/2 6/6/2 2/7/2 1/8/2
f 7/9/3 8/10/3 6/11/3 5/12/3
f 4/13/4 3/14/4 8/15/4 7/16/4
f 2/17/5 6/6/5 8/15/5 3/18/5
f 5/5/6 1/19/6 4/20/6 7/16/6
