# Blender v2.93.4 OBJ File: ''
# www.blender.org
mtllib 12.mtl
o textured_reoriented.004_hull_1
v 2.479100 -8.430600 2.887199
v 1.038200 -8.446050 0.162750
v 0.140700 -8.427300 3.109499
v -0.791000 -17.764799 3.122999
v -0.934100 -15.528600 1.902149
v -0.741700 -17.539799 0.221099
v 2.590400 -8.494650 1.102950
v 1.955300 -17.762100 0.500849
v 0.816000 -14.709450 3.659549
v 2.157200 -17.695351 2.960699
v -0.162400 -8.493600 1.159500
vt 1.000000 0.937010
vt 1.000000 0.550200
vt 1.000000 0.333363
vt 0.002948 0.043549
vt 0.223353 0.007333
vt 0.029092 0.060224
vt 0.992876 0.975071
vt 0.006814 0.794419
vt 0.274265 0.477848
vt 0.019841 0.832558
vt 0.994892 0.223093
vn 0.0676 0.8236 0.5631
vn 0.3050 0.7961 -0.5227
vn 0.0493 0.7753 0.6297
vn -0.9968 -0.0763 -0.0228
vn 0.3362 0.7891 -0.5142
vn 0.5184 0.0200 -0.8549
vn 0.1010 -0.0262 -0.9945
vn 0.0943 0.0969 0.9908
vn 0.0586 -0.2025 0.9775
vn 0.4472 -0.0084 0.8944
vn -0.3834 0.0396 0.9228
vn -0.0600 0.9979 -0.0246
vn -0.9735 0.0844 -0.2124
vn -0.6370 0.1198 -0.7615
vn -0.0274 -0.9992 -0.0297
vn -0.0738 -0.9942 -0.0783
vn -0.0239 -0.9994 -0.0260
vn -0.9812 0.1233 0.1483
vn -0.9532 0.0955 0.2867
vn 0.9974 -0.0342 0.0634
vn 0.9948 -0.0630 -0.0799
vn 0.0249 -0.9994 0.0251
usemtl None.009
s 1
f 1/1/1 2/2/2 3/3/3
f 4/4/4 5/5/4 6/6/4
f 2/2/2 1/1/1 7/7/5
f 7/7/5 8/8/6 2/2/2
f 8/8/7 6/6/7 2/2/7
f 9/9/8 1/1/1 3/3/3
f 9/9/9 4/4/9 10/10/9
f 1/1/10 9/9/10 10/10/10
f 9/9/11 3/3/11 4/4/11
f 3/3/3 2/2/2 11/11/12
f 6/6/13 5/5/13 11/11/13
f 2/2/14 6/6/14 11/11/14
f 4/4/15 6/6/16 8/8/17
f 3/3/18 11/11/18 5/5/18
f 4/4/19 3/3/19 5/5/19
f 7/7/20 1/1/20 10/10/20
f 7/7/21 10/10/21 8/8/21
f 4/4/15 8/8/17 10/10/22
o textured_reoriented.004_hull_2
v 3.846800 3.893550 2.809350
v 2.713900 -8.370900 1.362150
v 3.922000 4.776000 0.904200
v 1.475800 15.496200 0.655501
v 2.817300 15.495300 3.845401
v 2.737600 15.495151 -0.149999
v 4.430300 15.467100 0.566101
v 1.399400 15.495151 2.629951
v 0.605100 2.598450 3.168450
v 4.643000 14.799150 2.012101
v 4.231000 15.495151 3.402001
v 2.475200 2.308200 -0.247200
v -0.145500 -8.444850 1.240350
v -0.075700 -8.445450 2.623050
v 0.421200 3.831000 1.240350
v 2.999600 6.657600 3.902400
v 1.142100 -8.444850 3.325050
v 2.325600 -8.447100 3.016199
v 0.942700 5.601150 0.152100
v 0.836200 -8.447700 0.163350
vt 0.523067 0.830726
vt 0.002561 0.571885
vt 0.557783 0.847641
vt 1.000000 0.352222
vt 0.999962 0.619700
vt 1.000000 0.602088
vt 0.998066 0.946449
vt 1.000000 0.322627
vt 0.494914 0.134717
vt 0.970930 1.000000
vt 1.000000 0.913961
vt 0.495682 0.497348
vt 0.000094 0.000000
vt 0.000094 0.027856
vt 0.512821 0.118346
vt 0.627043 0.677585
vt 0.000094 0.268894
vt 0.000000 0.516049
vt 0.585414 0.245956
vt 0.000062 0.206335
vn 0.9958 -0.0916 -0.0031
vn -0.3056 0.8227 -0.4793
vn 0.1754 0.8094 0.5605
vn -0.2752 0.8532 -0.4431
vn 0.0127 0.9999 -0.0024
vn -0.0005 1.0000 0.0005
vn -0.6492 0.0716 0.7573
vn 0.9066 0.4177 0.0596
vn 0.1784 0.8141 0.5526
vn 0.7092 -0.0895 -0.6993
vn -0.9977 0.0461 0.0504
vn -0.9954 0.0881 -0.0385
vn -0.2932 0.0001 0.9560
vn -0.2928 -0.0001 0.9562
vn -0.2926 -0.0006 0.9562
vn 0.2518 -0.0679 0.9654
vn -0.2921 -0.0006 0.9564
vn -0.2285 0.0117 -0.9735
vn -0.2499 0.0011 -0.9683
vn -0.0013 -1.0000 0.0008
vn -0.3941 -0.8469 -0.3569
vn -0.4851 -0.7424 -0.4621
vn 0.0204 -0.9998 -0.0090
vn 0.0610 -0.9976 -0.0316
vn 0.5379 -0.1139 -0.8353
vn -0.9901 0.0546 0.1294
vn -0.9884 0.0666 0.1368
vn 0.3896 -0.0010 -0.9210
vn 0.6779 -0.0554 -0.7331
vn -0.5367 0.0717 -0.8408
vn -0.0012 -1.0000 0.0029
vn -0.4994 -0.0120 0.8663
vn 0.6904 -0.0730 0.7198
vn 0.7107 -0.0593 0.7009
vn 0.9510 -0.0471 0.3055
vn 0.9682 -0.1156 0.2220
vn -0.7390 0.0051 -0.6737
vn -0.9263 0.0428 -0.3743
vn -0.9382 0.0678 -0.3393
vn 0.2992 0.0123 0.9541
vn 0.9843 -0.0521 -0.1689
vn 0.9974 -0.0724 0.0058
usemtl None.009
s 1
f 12/12/23 13/13/23 14/14/23
f 15/15/24 16/16/25 17/17/26
f 17/17/26 16/16/25 18/18/27
f 16/16/25 15/15/24 19/19/28
f 20/20/29 16/16/29 19/19/29
f 21/21/30 18/18/30 22/22/30
f 18/18/27 16/16/25 22/22/31
f 13/13/32 23/23/32 14/14/32
f 24/24/33 25/25/33 26/26/33
f 19/19/34 15/15/34 26/26/34
f 16/16/35 20/20/36 27/27/37
f 28/28/38 29/29/38 27/27/38
f 20/20/36 28/28/39 27/27/37
f 30/30/40 17/17/40 23/23/40
f 31/31/41 30/30/41 23/23/41
f 25/25/42 24/24/43 31/31/44
f 29/29/45 25/25/42 31/31/44
f 13/13/46 29/29/45 31/31/44
f 23/23/47 13/13/47 31/31/47
f 26/26/48 25/25/48 20/20/48
f 19/19/49 26/26/49 20/20/49
f 23/23/50 17/17/50 18/18/50
f 14/14/51 23/23/51 18/18/51
f 17/17/26 30/30/52 15/15/24
f 29/29/45 28/28/53 25/25/42
f 28/28/54 20/20/54 25/25/54
f 27/27/55 29/29/55 12/12/55
f 22/22/56 27/27/56 12/12/56
f 21/21/57 22/22/57 12/12/57
f 12/12/58 29/29/58 13/13/58
f 31/31/44 24/24/43 30/30/59
f 24/24/60 26/26/60 30/30/60
f 26/26/61 15/15/61 30/30/61
f 27/27/62 22/22/31 16/16/25
f 18/18/63 21/21/63 14/14/63
f 21/21/64 12/12/64 14/14/64
o textured_reoriented.004_hull_3
v 1.430100 15.467700 0.683851
v 4.448800 15.505501 3.226801
v 1.862900 15.495151 3.401851
v 3.008100 15.495151 -0.194999
v 4.518000 15.530849 0.687901
v 3.189600 15.509549 3.820051
v 5.148800 22.607248 3.169651
v 5.103500 23.420099 0.490051
v 5.003000 23.681250 2.706901
v 1.672100 23.925301 1.448851
v 3.149900 23.911949 -0.072299
v 1.970400 23.354252 0.166351
v 1.882000 23.554350 3.328501
v 2.765000 23.832150 3.871501
v 4.514200 23.335800 4.025701
v 1.399400 15.805650 2.552551
v 3.602400 23.318401 -0.527549
vt 0.000000 0.051125
vt 0.004985 0.782086
vt 0.000000 0.133333
vt 0.000039 0.429036
vt 0.004836 0.795889
vt 0.003377 0.477222
vt 0.840055 0.965811
vt 0.919923 0.956785
vt 0.963745 0.946620
vt 0.986339 0.094620
vt 0.990905 0.466667
vt 0.926893 0.177592
vt 0.945961 0.150734
vt 0.970920 0.375085
vt 0.919674 0.820359
vt 0.036555 0.013287
vt 0.921326 0.581486
vn -0.2832 -0.8031 -0.5242
vn 0.0123 -0.9999 0.0041
vn 0.0047 -0.9999 0.0115
vn 0.0285 -0.6576 -0.7528
vn 0.2959 -0.8311 -0.4708
vn 0.0053 -0.9998 0.0182
vn 0.9949 -0.0978 0.0261
vn 0.8524 -0.0762 -0.5173
vn 0.9964 -0.0749 -0.0396
vn 0.9205 -0.0779 -0.3830
vn 0.9889 0.1461 0.0276
vn -0.4546 0.7696 -0.4484
vn -0.4861 -0.0240 -0.8736
vn -0.4135 0.8834 0.2205
vn 0.2314 0.9167 0.3259
vn 0.0818 0.9962 0.0281
vn 0.0332 0.9992 0.0235
vn -0.6922 -0.7121 0.1174
vn 0.8702 0.2898 0.3984
vn 0.7715 -0.0710 0.6323
vn -0.9676 0.0501 -0.2474
vn -0.9993 0.0306 -0.0219
vn -0.9915 0.0497 0.1205
vn -0.5259 0.0090 0.8505
vn -0.8768 0.0065 0.4809
vn -0.3914 -0.0094 -0.9202
vn -0.3541 0.3841 -0.8527
vn 0.4240 -0.0954 0.9006
vn 0.5047 -0.0749 -0.8601
vn 0.5629 -0.0624 -0.8241
vn -0.3004 -0.0212 0.9536
vn -0.0908 -0.0108 0.9958
vn 0.2700 0.9576 -0.1006
vn 0.3529 0.7238 -0.5929
usemtl None.009
s 1
f 32/32/65 33/33/66 34/34/67
f 33/33/66 32/32/65 35/35/68
f 36/36/69 33/33/66 35/35/68
f 34/34/67 33/33/66 37/37/70
f 38/38/71 33/33/71 36/36/71
f 39/39/72 38/38/73 36/36/74
f 38/38/75 39/39/75 40/40/75
f 41/41/76 42/42/76 43/43/76
f 43/43/77 35/35/68 32/32/65
f 41/41/78 44/44/78 45/45/78
f 46/46/79 40/40/79 45/45/79
f 40/40/80 42/42/80 45/45/80
f 42/42/81 41/41/81 45/45/81
f 32/32/82 34/34/82 47/47/82
f 40/40/83 46/46/83 38/38/83
f 46/46/84 33/33/84 38/38/84
f 43/43/85 32/32/85 41/41/85
f 32/32/86 47/47/86 41/41/86
f 47/47/87 44/44/87 41/41/87
f 34/34/88 45/45/88 44/44/88
f 47/47/89 34/34/89 44/44/89
f 35/35/90 43/43/90 48/48/90
f 43/43/91 42/42/91 48/48/91
f 37/37/92 33/33/92 46/46/92
f 48/48/93 36/36/69 35/35/68
f 36/36/74 48/48/94 39/39/72
f 45/45/95 34/34/95 37/37/95
f 46/46/96 45/45/96 37/37/96
f 42/42/97 40/40/97 39/39/97
f 48/48/98 42/42/98 39/39/98
o textured_reoriented.004_hull_4
v -6.032100 -15.826500 1.516949
v -3.974400 -19.294649 1.124099
v -6.122700 -15.866700 -0.407701
v -3.983200 -22.013552 0.021899
v -3.968600 -21.702301 2.045849
v -3.955700 -19.534801 -0.196051
v -6.327200 -16.314600 1.568099
v -5.346300 -18.952950 -0.150001
vt 1.000000 0.120482
vt 0.441525 0.981079
vt 0.964057 0.086011
vt 0.009797 0.980921
vt 0.052386 0.993137
vt 0.397003 1.000000
vt 0.913402 0.051539
vt 0.483473 0.430842
vn 0.8564 0.5139 -0.0510
vn 0.9741 -0.0229 -0.2250
vn 1.0000 -0.0057 0.0061
vn 1.0000 -0.0003 -0.0072
vn 0.5124 -0.0809 -0.8549
vn 0.8603 0.5036 -0.0794
vn 0.6168 0.2827 0.7346
vn -0.9162 -0.3951 0.0674
vn -0.7257 -0.3294 -0.6040
vn -0.8957 -0.4088 -0.1750
vn -0.9535 -0.2825 -0.1047
vn 0.0154 0.0950 0.9954
vn -0.8540 0.5194 0.0294
vn -0.1387 -0.1170 -0.9834
vn -0.0500 -0.0869 -0.9950
vn -0.9547 -0.2532 -0.1562
usemtl None.009
s 1
f 49/49/99 50/50/99 51/51/99
f 52/52/100 50/50/101 53/53/102
f 50/50/101 52/52/100 54/54/103
f 51/51/104 50/50/104 54/54/104
f 49/49/105 53/53/105 50/50/105
f 52/52/106 53/53/106 55/55/106
f 56/56/107 52/52/108 55/55/109
f 49/49/110 55/55/110 53/53/110
f 55/55/111 49/49/111 51/51/111
f 52/52/108 56/56/107 51/51/112
f 54/54/103 52/52/100 51/51/113
f 55/55/109 51/51/114 56/56/107
o textured_reoriented.004_hull_5
v -5.846600 -15.967950 2.869949
v -5.870700 -16.081800 4.556099
v -3.956000 -19.484999 4.137899
v -3.950700 -19.976250 2.129099
v -6.296500 -16.006950 2.727449
v -3.958800 -22.000351 3.901649
v -6.212100 -16.525499 4.535249
v -4.201500 -21.798901 1.934099
vt 0.973740 0.163878
vt 0.959346 0.169583
vt 0.402227 0.999984
vt 0.300267 0.999069
vt 0.947530 0.022348
vt 0.004326 1.004879
vt 0.886754 0.062732
vt 0.041425 0.930276
vn 0.8730 0.4856 0.0453
vn 0.2652 0.2951 -0.9179
vn 0.7126 0.1779 -0.6786
vn 0.7503 0.1174 0.6506
vn 0.9805 -0.0803 0.1792
vn -0.9414 -0.3334 -0.0517
vn 0.9064 -0.0804 -0.4146
vn -0.0596 0.1143 -0.9917
vn 0.0525 -0.0934 0.9942
vn -0.9192 -0.3869 0.0738
vn -0.1067 0.9921 0.0655
vn -0.7802 0.5907 0.2058
vn 0.0566 -0.0903 0.9943
vn 0.8913 0.4411 -0.1055
usemtl None.009
s 1
f 57/57/115 58/58/115 59/59/115
f 57/57/116 60/60/116 61/61/116
f 60/60/117 59/59/118 62/62/119
f 63/63/120 61/61/120 64/64/120
f 62/62/119 64/64/121 60/60/117
f 61/61/122 60/60/117 64/64/121
f 63/63/123 62/62/119 59/59/118
f 62/62/124 63/63/124 64/64/124
f 57/57/125 61/61/125 58/58/125
f 61/61/126 63/63/126 58/58/126
f 63/63/127 59/59/127 58/58/127
f 60/60/117 57/57/128 59/59/118
o textured_reoriented.004_hull_6
v -3.925600 -19.536451 4.084949
v -1.587600 -23.197950 3.865199
v -1.587300 -21.464550 3.725249
v -1.601800 -24.936300 0.004499
v -1.587500 -21.539249 -0.067651
v -1.591000 -24.787048 3.466649
v -3.177800 -23.469000 0.413399
v -3.948000 -21.950850 -0.112351
v -3.921600 -19.450499 -0.216001
v -3.952400 -22.050751 3.902699
v -2.433800 -24.334351 3.424049
vt 0.963603 0.978871
vt 0.309990 0.946244
vt 0.615930 0.908010
vt 0.009362 0.068431
vt 0.609547 0.050010
vt 0.021257 0.842441
vt 0.270460 0.125095
vt 0.534774 0.035692
vt 0.973627 0.041053
vt 0.524389 0.923298
vt 0.125788 0.812822
vn 0.2145 0.0786 0.9735
vn 0.9828 0.0147 0.1841
vn 0.7483 0.1979 0.6332
vn 0.9676 -0.0094 -0.2522
vn 0.7290 0.3015 -0.6146
vn 1.0000 -0.0024 -0.0018
vn -0.6328 -0.5198 -0.5739
vn 0.6376 0.7702 0.0160
vn -0.1020 -0.2418 0.9650
vn -0.2309 -0.3443 0.9100
vn -0.9999 0.0106 -0.0008
vn -0.9999 0.0105 -0.0008
vn -0.6362 -0.0491 0.7699
vn -0.8900 -0.4558 -0.0123
vn -0.7421 -0.6702 -0.0093
vn -0.7872 -0.6165 0.0173
vn -0.8276 -0.5595 0.0437
vn -0.9358 -0.0156 0.3521
vn -0.4744 -0.8794 0.0394
vn -0.6863 -0.7263 -0.0391
vn -0.0192 -0.0721 0.9972
vn 0.6053 0.6484 -0.4618
vn -0.0029 -0.0414 -0.9991
usemtl None.009
s 1
f 65/65/129 66/66/130 67/67/131
f 68/68/132 69/69/133 70/70/134
f 70/70/134 69/69/133 67/67/131
f 70/70/134 67/67/131 66/66/130
f 71/71/135 72/72/135 68/68/135
f 67/67/136 73/73/136 65/65/136
f 66/66/137 74/74/137 70/70/137
f 74/74/138 75/75/138 70/70/138
f 73/73/139 72/72/140 74/74/141
f 72/72/142 71/71/142 74/74/142
f 71/71/143 75/75/144 74/74/145
f 73/73/139 74/74/141 65/65/146
f 68/68/147 70/70/147 75/75/147
f 71/71/143 68/68/148 75/75/144
f 74/74/141 66/66/149 65/65/146
f 67/67/131 69/69/133 73/73/150
f 69/69/133 68/68/132 73/73/150
f 68/68/151 72/72/151 73/73/151
o textured_reoriented.004_hull_7
v 3.976700 -24.761400 3.246599
v 3.977800 -23.809950 0.123599
v 3.974800 -22.392450 3.096899
v 2.892600 -21.731850 1.008599
v 2.890000 -24.782101 0.355049
v 2.884600 -24.930300 3.103649
v 3.973600 -25.206749 1.008599
v 2.947700 -22.663050 3.534149
v 3.975300 -21.982800 1.175549
v 2.886900 -21.773399 2.707949
v 2.918400 -22.580549 0.107699
vt 0.874837 0.163993
vt 0.052832 0.399431
vt 0.832664 0.778431
vt 0.266724 1.000000
vt 0.107148 0.147834
vt 0.832670 0.123828
vt 0.266724 0.000000
vt 0.984180 0.729727
vt 0.324783 0.912747
vt 0.750579 0.975241
vt 0.013914 0.752734
vn 0.9723 0.0145 0.2335
vn 0.8972 -0.0263 -0.4408
vn 0.7610 0.2413 0.6022
vn -0.9999 0.0028 -0.0114
vn -0.9057 -0.4229 -0.0295
vn -0.9699 -0.2435 -0.0013
vn 0.9161 -0.2166 -0.3374
vn 0.1252 -0.9731 0.1935
vn -0.0997 -0.1829 0.9781
vn 0.9524 0.1531 -0.2636
vn 0.4341 0.8810 0.1880
vn -0.9159 0.2668 0.2999
vn 0.2221 0.9747 0.0246
vn -0.3374 -0.9400 -0.0513
vn 0.2867 -0.5134 -0.8089
vn -0.5313 0.3094 0.7886
vn 0.5099 0.4297 -0.7452
vn 0.2649 0.7057 -0.6572
vn -0.9993 0.0087 -0.0369
vn -0.1123 -0.1095 -0.9876
usemtl None.009
s 1
f 76/76/152 77/77/153 78/78/154
f 79/79/155 80/80/156 81/81/157
f 77/77/153 76/76/152 82/82/158
f 76/76/159 81/81/159 82/82/159
f 76/76/160 83/83/160 81/81/160
f 78/78/154 77/77/153 84/84/161
f 78/78/162 84/84/162 85/85/162
f 79/79/155 81/81/157 85/85/163
f 84/84/164 79/79/164 85/85/164
f 82/82/165 81/81/157 80/80/156
f 82/82/158 80/80/166 77/77/153
f 83/83/167 76/76/152 78/78/154
f 77/77/153 86/86/168 84/84/161
f 86/86/169 79/79/169 84/84/169
f 80/80/156 79/79/155 86/86/170
f 77/77/171 80/80/171 86/86/171
f 83/83/167 78/78/154 85/85/163
f 81/81/157 83/83/167 85/85/163
o textured_reoriented.004_hull_8
v -0.973100 -17.833500 0.821999
v -1.620300 -22.239300 3.875099
v -0.949500 -17.970751 3.210899
v -1.577800 -24.985498 0.107999
v -1.587100 -24.896999 3.325049
v 1.944900 -17.800650 3.194849
v 1.859900 -17.819851 0.472049
v -1.587100 -21.962250 -0.150001
v 2.891900 -24.202499 0.004649
v 1.605000 -25.747349 0.081899
v 1.955300 -23.689201 -0.314551
v 1.650300 -25.782150 3.510749
v 2.917800 -25.271549 1.400849
v 2.842100 -23.786249 3.735749
v 2.892300 -21.808048 2.861549
v 2.889600 -22.008001 0.195149
v -0.402800 -18.565500 0.236249
vt 0.989346 0.141152
vt 0.463785 0.037267
vt 0.977867 0.151587
vt 0.105742 0.005274
vt 0.106896 0.000000
vt 0.996244 0.787446
vt 0.988688 0.757098
vt 0.475817 0.000000
vt 0.194200 0.999911
vt 0.000000 0.712618
vt 0.285803 0.787132
vt 0.005708 0.721951
vt 0.073475 0.999911
vt 0.252692 0.988911
vt 0.495201 1.000000
vt 0.436316 1.000000
vt 0.902815 0.264388
vn -0.9872 0.1581 0.0188
vn -1.0000 -0.0068 -0.0063
vn -0.9999 -0.0120 -0.0026
vn -1.0000 -0.0080 -0.0055
vn -0.0057 1.0000 -0.0069
vn -1.0000 -0.0038 -0.0085
vn -0.0583 0.9966 0.0578
vn 0.2053 -0.2187 -0.9540
vn 0.3533 -0.9354 -0.0142
vn 0.7866 -0.5091 0.3494
vn -0.0036 0.1543 0.9880
vn 0.8816 0.1719 0.4395
vn 0.9965 0.0834 -0.0099
vn 0.9727 0.2315 -0.0183
vn 0.9938 0.1110 -0.0007
vn 0.9992 -0.0086 0.0379
vn 1.0000 0.0012 0.0064
vn -0.0875 -0.0850 -0.9925
vn -0.0513 -0.1805 -0.9822
vn 0.9701 0.2406 -0.0320
vn -0.9892 0.1466 0.0019
vn -0.1033 0.5711 -0.8143
vn -0.5009 0.2682 -0.8229
vn -0.2650 -0.9639 0.0257
vn -0.2328 -0.9725 -0.0068
vn 0.3610 0.0810 -0.9290
vn 0.1832 0.1342 -0.9739
vn 0.0957 0.1331 -0.9865
vn 0.2811 0.1320 -0.9506
vn 0.0655 0.0995 0.9929
vn 0.6715 -0.5823 -0.4583
vn 0.9999 0.0025 -0.0166
vn -0.1112 -0.2027 0.9729
vn -0.0065 -0.1082 0.9941
vn 0.0591 0.1335 -0.9893
vn 0.0076 0.1104 -0.9939
usemtl None.009
s 1
f 87/87/172 88/88/172 89/89/172
f 90/90/173 91/91/174 88/88/175
f 87/87/176 92/92/176 93/93/176
f 90/90/173 88/88/175 94/94/177
f 92/92/178 87/87/178 89/89/178
f 95/95/179 96/96/179 97/97/179
f 98/98/180 96/96/180 99/99/180
f 100/100/181 98/98/181 99/99/181
f 89/89/182 88/88/182 92/92/182
f 92/92/183 100/100/183 101/101/183
f 102/102/184 92/92/185 101/101/186
f 100/100/187 99/99/188 101/101/186
f 90/90/189 94/94/189 97/97/189
f 96/96/190 90/90/190 97/97/190
f 92/92/191 102/102/191 93/93/191
f 94/94/192 88/88/192 87/87/192
f 93/93/193 103/103/193 87/87/193
f 103/103/194 94/94/194 87/87/194
f 98/98/195 91/91/195 90/90/195
f 96/96/196 98/98/196 90/90/196
f 95/95/197 97/97/197 102/102/197
f 101/101/186 99/99/188 102/102/184
f 97/97/198 93/93/199 102/102/200
f 100/100/201 92/92/201 88/88/201
f 96/96/202 95/95/202 99/99/202
f 95/95/203 102/102/184 99/99/188
f 88/88/204 91/91/204 98/98/204
f 100/100/205 88/88/205 98/98/205
f 103/103/206 93/93/199 97/97/198
f 94/94/207 103/103/207 97/97/207
o textured_reoriented.004_hull_9
v 4.981500 -21.563700 3.058649
v 3.963500 -22.216650 0.704399
v 3.966600 -22.360498 3.079949
v 3.960100 -24.983101 0.568949
v 3.963200 -24.860701 3.188999
v 4.950700 -23.897400 4.263299
v 6.084500 -23.353500 4.174499
v 6.262000 -25.270350 3.711149
v 6.530700 -21.999001 3.135299
v 4.952100 -21.577051 0.854249
v 6.467600 -21.712799 0.657449
v 5.010200 -23.565451 -0.569851
v 5.878600 -26.133451 2.243849
v 6.379800 -25.598400 0.364799
v 6.399400 -23.730600 -0.334951
v 4.539800 -25.637249 3.060149
v 4.784600 -25.790098 0.646049
vt 0.936571 0.738043
vt 0.787274 0.292668
vt 0.778939 0.741322
vt 0.269302 0.249735
vt 0.301419 0.760822
vt 0.475777 1.000000
vt 0.590148 1.000000
vt 0.189196 0.891439
vt 0.861072 0.779847
vt 0.967265 0.283286
vt 0.879551 0.268587
vt 0.547533 0.028923
vt 0.000000 0.583247
vt 0.139481 0.196761
vt 0.496936 0.046527
vt 0.123228 0.750342
vt 0.086954 0.247620
vn -0.6162 0.7861 0.0484
vn -0.9651 0.1650 -0.2033
vn -0.9088 0.4163 0.0264
vn -0.9720 -0.0773 -0.2220
vn -0.9549 -0.2967 0.0151
vn -0.1496 0.4551 0.8778
vn 0.9225 -0.0078 0.3859
vn -0.3256 0.4371 0.8384
vn -0.5434 0.8395 0.0022
vn 0.0883 0.9961 -0.0072
vn -0.0535 0.5804 -0.8126
vn 0.8529 -0.5159 0.0806
vn 0.9963 -0.0744 0.0424
vn 0.9994 -0.0201 -0.0278
vn 0.9994 -0.0204 -0.0276
vn 0.9994 -0.0206 -0.0275
vn 0.9994 -0.0208 -0.0274
vn -0.4236 -0.4454 0.7888
vn -0.7491 0.0299 0.6618
vn -0.0983 -0.4696 -0.8774
vn -0.3373 -0.4249 -0.8400
vn -0.2424 0.5602 -0.7921
vn -0.7549 0.0330 -0.6550
vn -0.6980 -0.7156 -0.0255
vn -0.3335 -0.9424 0.0258
vn 0.0708 -0.9642 -0.2557
vn 0.1999 0.4270 -0.8819
vn 0.1157 -0.3495 -0.9298
vn 0.1226 0.5784 0.8065
vn 0.2643 0.9588 0.1040
vn -0.0089 -0.8609 0.5087
vn 0.1786 -0.2155 0.9600
vn -0.2009 -0.5246 0.8273
vn -0.8002 -0.5990 0.0289
usemtl None.009
s 1
f 104/104/208 105/105/209 106/106/210
f 105/105/209 107/107/211 108/108/212
f 109/109/213 110/110/213 104/104/213
f 110/110/214 111/111/214 112/112/214
f 105/105/209 108/108/212 106/106/210
f 109/109/215 104/104/215 106/106/215
f 113/113/216 105/105/216 104/104/216
f 114/114/217 113/113/217 104/104/217
f 113/113/218 114/114/218 115/115/218
f 111/111/219 116/116/219 117/117/219
f 112/112/220 111/111/220 117/117/220
f 114/114/221 112/112/222 118/118/223
f 112/112/222 117/117/224 118/118/223
f 108/108/225 119/119/225 109/109/225
f 106/106/226 108/108/226 109/109/226
f 117/117/227 120/120/227 115/115/227
f 120/120/228 107/107/228 115/115/228
f 113/113/229 115/115/229 105/105/229
f 115/115/230 107/107/211 105/105/209
f 119/119/231 107/107/231 120/120/231
f 116/116/232 119/119/232 120/120/232
f 117/117/233 116/116/233 120/120/233
f 115/115/234 114/114/234 118/118/234
f 117/117/235 115/115/235 118/118/235
f 104/104/236 110/110/236 112/112/236
f 114/114/237 104/104/237 112/112/237
f 119/119/238 116/116/238 111/111/238
f 110/110/239 109/109/239 111/111/239
f 109/109/240 119/119/240 111/111/240
f 107/107/211 119/119/241 108/108/212
