# Blender v2.93.4 OBJ File: ''
# www.blender.org
mtllib 15.mtl
o Cylinder.001
v 4.115221 1.171457 13.526605
v 4.190740 2.897842 13.526605
v -0.780188 2.897842 13.526605
v 4.115221 1.171458 -14.644760
v 4.190740 2.897843 -14.644760
v -0.780188 2.897843 -14.644760
v 3.890957 -0.502473 13.526605
v 3.890957 -0.502472 -14.644760
v 3.524762 -2.073087 13.526605
v 3.524762 -2.073085 -14.644760
v 3.027764 -3.492661 13.526605
v 3.027764 -3.492659 -14.644760
v 2.415063 -4.718062 13.526605
v 2.415063 -4.718061 -14.644760
v 1.705276 -5.712059 13.526605
v 1.705276 -5.712058 -14.644760
v 0.919969 -6.444448 13.526605
v 0.919969 -6.444447 -14.644760
v 0.083004 -6.892976 13.526605
v 0.083004 -6.892975 -14.644760
v -0.780188 -7.044015 13.526605
v -0.780188 -7.044014 -14.644760
v -1.643381 -6.892976 13.526605
v -1.643381 -6.892975 -14.644760
v -2.480346 -6.444448 13.526605
v -2.480346 -6.444447 -14.644760
v -3.265653 -5.712059 13.526605
v -3.265653 -5.712058 -14.644760
v -3.975440 -4.718062 13.526605
v -3.975440 -4.718061 -14.644760
v -4.588140 -3.492661 13.526605
v -4.588140 -3.492659 -14.644760
v -5.085139 -2.073087 13.526605
v -5.085139 -2.073085 -14.644760
v -5.451333 -0.502473 13.526605
v -5.451333 -0.502472 -14.644760
v -5.675598 1.171457 13.526605
v -5.675598 1.171458 -14.644760
v -5.751117 2.897842 13.526605
v -5.751117 2.897843 -14.644760
v -5.675598 4.624228 13.526605
v -5.675598 4.624228 -14.644760
v -5.451333 6.298157 13.526605
v -5.451333 6.298158 -14.644760
v -5.085139 7.868771 13.526605
v -5.085139 7.868772 -14.644760
v -4.588140 9.288344 13.526605
v -4.588140 9.288346 -14.644760
v -3.975440 10.513745 13.526605
v -3.975440 10.513747 -14.644760
v -3.265653 11.507743 13.526606
v -3.265653 11.507745 -14.644759
v -2.480346 12.240131 13.526606
v -2.480346 12.240133 -14.644759
v -1.643381 12.688660 13.526606
v -1.643381 12.688662 -14.644759
v -0.780188 12.839700 13.526606
v -0.780188 12.839702 -14.644759
v 0.083004 12.688660 13.526606
v 0.083004 12.688662 -14.644759
v 0.919969 12.240131 13.526606
v 0.919969 12.240133 -14.644759
v 1.705276 11.507743 13.526606
v 1.705276 11.507745 -14.644759
v 2.415063 10.513745 13.526605
v 2.415063 10.513747 -14.644760
v 3.027764 9.288344 13.526605
v 3.027764 9.288346 -14.644760
v 3.524762 7.868771 13.526605
v 3.524762 7.868772 -14.644760
v 3.890957 6.298157 13.526605
v 3.890957 6.298158 -14.644760
v 4.115221 4.624228 13.526605
v 4.115221 4.624228 -14.644760
vt 0.007596 0.586824
vt 0.000000 0.500000
vt 0.500000 0.500000
vt 0.027778 0.000000
vt 0.027778 1.000000
vt 0.000000 1.000000
vt 0.000000 0.000000
vt 0.992404 0.586824
vt 0.500000 0.500000
vt 1.000000 0.500000
vt 0.030154 0.671010
vt 0.055556 0.000000
vt 0.055556 1.000000
vt 0.969846 0.671010
vt 0.066987 0.750000
vt 0.083333 0.000000
vt 0.083333 1.000000
vt 0.933013 0.750000
vt 0.116978 0.821394
vt 0.111111 0.000000
vt 0.111111 1.000000
vt 0.883022 0.821394
vt 0.178606 0.883022
vt 0.138889 0.000000
vt 0.138889 1.000000
vt 0.821394 0.883022
vt 0.250000 0.933013
vt 0.166667 0.000000
vt 0.166667 1.000000
vt 0.750000 0.933013
vt 0.328990 0.969846
vt 0.194444 0.000000
vt 0.194444 1.000000
vt 0.671010 0.969846
vt 0.413176 0.992404
vt 0.222222 0.000000
vt 0.222222 1.000000
vt 0.586824 0.992404
vt 0.500000 1.000000
vt 0.250000 0.000000
vt 0.250000 1.000000
vt 0.500000 1.000000
vt 0.586824 0.992404
vt 0.277778 0.000000
vt 0.277778 1.000000
vt 0.413176 0.992404
vt 0.671010 0.969846
vt 0.305556 0.000000
vt 0.305556 1.000000
vt 0.328990 0.969846
vt 0.750000 0.933013
vt 0.333333 0.000000
vt 0.333333 1.000000
vt 0.250000 0.933013
vt 0.821394 0.883022
vt 0.361111 0.000000
vt 0.361111 1.000000
vt 0.178606 0.883022
vt 0.883022 0.821394
vt 0.388889 0.000000
vt 0.388889 1.000000
vt 0.116978 0.821394
vt 0.933013 0.750000
vt 0.416667 0.000000
vt 0.416667 1.000000
vt 0.066987 0.750000
vt 0.969846 0.671010
vt 0.444444 0.000000
vt 0.444444 1.000000
vt 0.030154 0.671010
vt 0.992404 0.586824
vt 0.472222 0.000000
vt 0.472222 1.000000
vt 0.007596 0.586824
vt 1.000000 0.500000
vt 0.500000 0.000000
vt 0.500000 1.000000
vt 0.000000 0.500000
vt 0.992404 0.413176
vt 0.527778 0.000000
vt 0.527778 1.000000
vt 0.007596 0.413176
vt 0.969846 0.328990
vt 0.555556 0.000000
vt 0.555556 1.000000
vt 0.030154 0.328990
vt 0.933013 0.250000
vt 0.583333 0.000000
vt 0.583333 1.000000
vt 0.066987 0.250000
vt 0.883022 0.178606
vt 0.611111 0.000000
vt 0.611111 1.000000
vt 0.116978 0.178606
vt 0.821394 0.116978
vt 0.638889 0.000000
vt 0.638889 1.000000
vt 0.178606 0.116978
vt 0.750000 0.066987
vt 0.666667 0.000000
vt 0.666667 1.000000
vt 0.250000 0.066987
vt 0.671010 0.030154
vt 0.694444 0.000000
vt 0.694444 1.000000
vt 0.328990 0.030154
vt 0.586824 0.007596
vt 0.722222 0.000000
vt 0.722222 1.000000
vt 0.413176 0.007596
vt 0.500000 0.000000
vt 0.750000 0.000000
vt 0.750000 1.000000
vt 0.500000 0.000000
vt 0.413176 0.007596
vt 0.777778 0.000000
vt 0.777778 1.000000
vt 0.586824 0.007596
vt 0.328990 0.030154
vt 0.805556 0.000000
vt 0.805556 1.000000
vt 0.671010 0.030154
vt 0.250000 0.066987
vt 0.833333 0.000000
vt 0.833333 1.000000
vt 0.750000 0.066987
vt 0.178606 0.116978
vt 0.861111 0.000000
vt 0.861111 1.000000
vt 0.821394 0.116978
vt 0.116978 0.178606
vt 0.888889 0.000000
vt 0.888889 1.000000
vt 0.883022 0.178606
vt 0.066987 0.250000
vt 0.916667 0.000000
vt 0.916667 1.000000
vt 0.933013 0.250000
vt 0.030154 0.328990
vt 0.944444 0.000000
vt 0.944444 1.000000
vt 0.969846 0.328990
vt 0.007596 0.413176
vt 0.972222 0.000000
vt 0.972222 1.000000
vt 0.992404 0.413176
vt 1.000000 0.000000
vt 1.000000 1.000000
vn -0.0000 0.0000 1.0000
vn 0.9961 -0.0883 -0.0000
vn 1.0000 0.0000 0.0000
vn 0.0000 0.0000 -1.0000
vn 0.9836 -0.1801 -0.0000
vn 0.9602 -0.2792 -0.0000
vn 0.9210 -0.3896 -0.0000
vn 0.8567 -0.5157 -0.0000
vn 0.7517 -0.6595 -0.0000
vn 0.5821 -0.8132 -0.0000
vn 0.3265 -0.9452 -0.0000
vn 0.0000 -1.0000 -0.0000
vn -0.3265 -0.9452 -0.0000
vn -0.5821 -0.8132 -0.0000
vn -0.7517 -0.6595 -0.0000
vn -0.8567 -0.5157 -0.0000
vn -0.9210 -0.3896 -0.0000
vn -0.9602 -0.2792 -0.0000
vn -0.9836 -0.1801 -0.0000
vn -0.9961 -0.0883 -0.0000
vn -1.0000 -0.0000 0.0000
vn -0.9961 0.0883 0.0000
vn -0.9836 0.1801 0.0000
vn -0.9602 0.2792 0.0000
vn -0.9210 0.3896 0.0000
vn -0.8567 0.5157 0.0000
vn -0.7517 0.6595 0.0000
vn -0.5821 0.8132 0.0000
vn -0.3265 0.9452 0.0000
vn 0.0000 1.0000 0.0000
vn 0.3265 0.9452 0.0000
vn 0.5821 0.8132 0.0000
vn 0.7517 0.6595 0.0000
vn 0.8567 0.5157 0.0000
vn 0.9210 0.3896 0.0000
vn 0.9602 0.2792 0.0000
vn 0.9836 0.1801 0.0000
vn 0.9961 0.0883 0.0000
usemtl default.003
s 1
f 1/1/1 2/2/1 3/3/1
f 1/4/2 4/5/2 5/6/3 2/7/3
f 4/8/4 6/9/4 5/10/4
f 7/11/1 1/1/1 3/3/1
f 7/12/5 8/13/5 4/5/2 1/4/2
f 8/14/4 6/9/4 4/8/4
f 9/15/1 7/11/1 3/3/1
f 9/16/6 10/17/6 8/13/5 7/12/5
f 10/18/4 6/9/4 8/14/4
f 11/19/1 9/15/1 3/3/1
f 11/20/7 12/21/7 10/17/6 9/16/6
f 12/22/4 6/9/4 10/18/4
f 13/23/1 11/19/1 3/3/1
f 13/24/8 14/25/8 12/21/7 11/20/7
f 14/26/4 6/9/4 12/22/4
f 15/27/1 13/23/1 3/3/1
f 15/28/9 16/29/9 14/25/8 13/24/8
f 16/30/4 6/9/4 14/26/4
f 17/31/1 15/27/1 3/3/1
f 17/32/10 18/33/10 16/29/9 15/28/9
f 18/34/4 6/9/4 16/30/4
f 19/35/1 17/31/1 3/3/1
f 19/36/11 20/37/11 18/33/10 17/32/10
f 20/38/4 6/9/4 18/34/4
f 21/39/1 19/35/1 3/3/1
f 21/40/12 22/41/12 20/37/11 19/36/11
f 22/42/4 6/9/4 20/38/4
f 23/43/1 21/39/1 3/3/1
f 23/44/13 24/45/13 22/41/12 21/40/12
f 24/46/4 6/9/4 22/42/4
f 25/47/1 23/43/1 3/3/1
f 25/48/14 26/49/14 24/45/13 23/44/13
f 26/50/4 6/9/4 24/46/4
f 27/51/1 25/47/1 3/3/1
f 27/52/15 28/53/15 26/49/14 25/48/14
f 28/54/4 6/9/4 26/50/4
f 29/55/1 27/51/1 3/3/1
f 29/56/16 30/57/16 28/53/15 27/52/15
f 30/58/4 6/9/4 28/54/4
f 31/59/1 29/55/1 3/3/1
f 31/60/17 32/61/17 30/57/16 29/56/16
f 32/62/4 6/9/4 30/58/4
f 33/63/1 31/59/1 3/3/1
f 33/64/18 34/65/18 32/61/17 31/60/17
f 34/66/4 6/9/4 32/62/4
f 35/67/1 33/63/1 3/3/1
f 35/68/19 36/69/19 34/65/18 33/64/18
f 36/70/4 6/9/4 34/66/4
f 37/71/1 35/67/1 3/3/1
f 37/72/20 38/73/20 36/69/19 35/68/19
f 38/74/4 6/9/4 36/70/4
f 39/75/1 37/71/1 3/3/1
f 39/76/21 40/77/21 38/73/20 37/72/20
f 40/78/4 6/9/4 38/74/4
f 41/79/1 39/75/1 3/3/1
f 41/80/22 42/81/22 40/77/21 39/76/21
f 42/82/4 6/9/4 40/78/4
f 43/83/1 41/79/1 3/3/1
f 43/84/23 44/85/23 42/81/22 41/80/22
f 44/86/4 6/9/4 42/82/4
f 45/87/1 43/83/1 3/3/1
f 45/88/24 46/89/24 44/85/23 43/84/23
f 46/90/4 6/9/4 44/86/4
f 47/91/1 45/87/1 3/3/1
f 47/92/25 48/93/25 46/89/24 45/88/24
f 48/94/4 6/9/4 46/90/4
f 49/95/1 47/91/1 3/3/1
f 49/96/26 50/97/26 48/93/25 47/92/25
f 50/98/4 6/9/4 48/94/4
f 51/99/1 49/95/1 3/3/1
f 51/100/27 52/101/27 50/97/26 49/96/26
f 52/102/4 6/9/4 50/98/4
f 53/103/1 51/99/1 3/3/1
f 53/104/28 54/105/28 52/101/27 51/100/27
f 54/106/4 6/9/4 52/102/4
f 55/107/1 53/103/1 3/3/1
f 55/108/29 56/109/29 54/105/28 53/104/28
f 56/110/4 6/9/4 54/106/4
f 57/111/1 55/107/1 3/3/1
f 57/112/30 58/113/30 56/109/29 55/108/29
f 58/114/4 6/9/4 56/110/4
f 59/115/1 57/111/1 3/3/1
f 59/116/31 60/117/31 58/113/30 57/112/30
f 60/118/4 6/9/4 58/114/4
f 61/119/1 59/115/1 3/3/1
f 61/120/32 62/121/32 60/117/31 59/116/31
f 62/122/4 6/9/4 60/118/4
f 63/123/1 61/119/1 3/3/1
f 63/124/33 64/125/33 62/121/32 61/120/32
f 64/126/4 6/9/4 62/122/4
f 65/127/1 63/123/1 3/3/1
f 65/128/34 66/129/34 64/125/33 63/124/33
f 66/130/4 6/9/4 64/126/4
f 67/131/1 65/127/1 3/3/1
f 67/132/35 68/133/35 66/129/34 65/128/34
f 68/134/4 6/9/4 66/130/4
f 69/135/1 67/131/1 3/3/1
f 69/136/36 70/137/36 68/133/35 67/132/35
f 70/138/4 6/9/4 68/134/4
f 71/139/1 69/135/1 3/3/1
f 71/140/37 72/141/37 70/137/36 69/136/36
f 72/142/4 6/9/4 70/138/4
f 73/143/1 71/139/1 3/3/1
f 73/144/38 74/145/38 72/141/37 71/140/37
f 74/146/4 6/9/4 72/142/4
f 2/2/1 73/143/1 3/3/1
f 2/147/3 5/148/3 74/145/38 73/144/38
f 5/10/4 6/9/4 74/146/4
