# Blender v2.93.4 OBJ File: ''
# www.blender.org
mtllib 19.mtl
o textured_simple_reoriented_hull_1
v 0.741600 3.742200 -2.973400
v 4.250900 2.568200 -2.956600
v 2.795300 4.094800 -15.505200
v -1.104200 4.057400 -15.757400
v -2.699600 2.378000 -2.971400
v -4.069100 0.642801 -16.174000
v 4.898100 2.367001 -16.538200
v 4.130300 -5.354800 -2.900400
v 3.189300 -6.131599 -16.510201
v 5.501400 -3.347200 -12.477600
v 4.856500 -3.803799 -16.536001
v -3.625700 -5.604000 -16.243200
v -4.159500 -5.006799 -10.696000
v -0.033800 -7.507800 -15.937800
v -3.213300 -6.033400 -3.098400
v -4.212300 0.684400 -9.838201
vt 0.518914 1.000000
vt 0.867270 1.000000
vt 0.732053 0.098871
vt 0.319876 0.106417
vt 0.160691 1.000000
vt 0.038511 0.076662
vt 0.916810 0.060939
vt 0.861632 1.000000
vt 0.752351 0.052782
vt 0.996523 0.309098
vt 0.946377 0.024761
vt 0.074349 0.068575
vt 0.008890 0.444633
vt 0.422059 0.094676
vt 0.143205 0.982633
vt 0.012621 0.517093
vn 0.1434 0.4613 0.8756
vn 0.4979 0.4570 0.7371
vn 0.3159 0.9455 0.0784
vn -0.3616 0.7854 -0.5024
vn -0.3083 0.9489 0.0679
vn -0.0113 0.9996 0.0263
vn -0.4761 0.8777 0.0545
vn -0.6629 0.6399 -0.3888
vn -0.0754 0.1850 -0.9798
vn 0.3561 0.7592 -0.5449
vn 0.6403 0.7679 0.0191
vn 0.5361 0.8048 -0.2547
vn 0.7822 -0.6227 -0.0185
vn 0.8110 -0.5816 -0.0634
vn -0.9866 -0.1428 -0.0788
vn -0.8368 -0.5471 -0.0220
vn -0.9937 -0.0696 -0.0881
vn 0.0484 0.5553 -0.8303
vn 0.3963 -0.9178 0.0250
vn -0.0582 -0.2642 -0.9627
vn -0.7399 -0.6728 0.0012
vn -0.0151 -0.9938 0.1104
vn -0.3208 -0.9467 0.0293
vn 0.0876 -0.9870 0.1350
vn -0.4673 -0.8840 -0.0142
vn 0.5776 -0.0106 0.8162
vn 0.9902 -0.0141 0.1388
vn -0.0138 -0.0030 0.9999
vn 0.9896 0.1366 0.0451
vn -0.9779 0.0567 0.2014
vn -0.9924 -0.0273 0.1199
vn -0.9997 -0.0059 -0.0226
vn -0.0384 0.0057 -0.9992
vn 0.3577 0.0023 -0.9339
vn 0.4389 0.0015 -0.8986
vn -0.7445 0.6676 -0.0105
vn 0.9883 -0.0014 -0.1527
usemtl None
s 1
f 1/1/1 2/2/2 3/3/3
f 4/4/4 1/1/5 3/3/6
f 5/5/7 1/1/5 4/4/4
f 6/6/8 4/4/4 7/7/9
f 3/3/10 2/2/11 7/7/12
f 8/8/13 9/9/13 10/10/13
f 9/9/14 11/11/14 10/10/14
f 12/12/15 13/13/16 6/6/17
f 3/3/10 7/7/12 4/4/18
f 9/9/19 8/8/19 14/14/19
f 14/14/20 12/12/20 9/9/20
f 13/13/16 12/12/15 15/15/21
f 15/15/22 14/14/23 8/8/24
f 14/14/23 15/15/22 12/12/25
f 8/8/26 10/10/27 2/2/2
f 15/15/28 8/8/26 2/2/2 1/1/1 5/5/28
f 10/10/29 7/7/29 2/2/29
f 15/15/30 5/5/30 16/16/30
f 13/13/31 15/15/31 16/16/31
f 6/6/32 13/13/32 16/16/32
f 9/9/33 12/12/33 6/6/33 7/7/34 11/11/35
f 4/4/4 6/6/8 16/16/36 5/5/7
f 7/7/34 10/10/37 11/11/35
o textured_simple_reoriented_hull_2
v 3.943600 3.288200 -2.968200
v 5.372200 -3.116800 5.447000
v 4.239100 -5.077000 -2.975800
v -3.627500 -1.968800 -3.006000
v -2.699800 2.378000 -2.967000
v -4.030400 -5.056201 7.965199
v -1.599600 0.283999 14.832200
v -4.360900 0.152200 7.379200
v 2.537800 -3.116801 14.721399
v 0.611400 4.274600 14.061201
v 5.077200 1.218600 8.955200
v 3.314000 -5.965800 11.859200
v -2.269700 -6.939600 -2.760200
v 0.117700 -7.299000 13.491199
vt 0.807561 0.000000
vt 1.000000 0.475679
vt 0.867233 0.000000
vt 0.080396 0.000000
vt 0.160688 0.000000
vt 0.056279 0.602499
vt 0.310816 0.994669
vt 0.041466 0.564595
vt 0.705284 1.000000
vt 0.520889 0.914560
vt 0.913411 0.665338
vt 0.773059 0.811596
vt 0.206156 0.017400
vt 0.459890 0.910519
vn 0.3119 0.6025 -0.7347
vn 0.9894 0.0351 -0.1413
vn 0.5521 0.0054 -0.8338
vn -0.0050 -0.0159 -0.9999
vn -0.0764 0.5567 -0.8272
vn -0.9374 -0.0204 0.3477
vn 0.0523 0.0311 0.9981
vn -0.0708 -0.1184 0.9904
vn 0.1256 0.1207 0.9847
vn 0.9593 -0.1353 0.2478
vn 0.8296 -0.5581 0.0183
vn 0.9347 -0.0905 0.3436
vn -0.0176 -0.0542 -0.9984
vn 0.2906 -0.9552 -0.0563
vn 0.3355 -0.9411 -0.0427
vn 0.2727 -0.9601 -0.0613
vn 0.6211 0.7800 0.0763
vn -0.9574 -0.2670 -0.1103
vn -0.9717 0.2084 -0.1112
vn -0.9960 -0.0695 -0.0561
vn -0.1353 0.9873 -0.0837
vn -0.1412 -0.2033 0.9689
vn -0.8192 -0.2746 0.5035
vn -0.6761 0.7351 0.0496
vn -0.8116 0.5061 0.2918
vn 0.9894 0.1258 -0.0722
vn -0.5355 -0.8424 0.0600
vn 0.3706 -0.9282 -0.0325
vn 0.5503 -0.5124 0.6593
vn 0.7984 0.2567 0.5446
usemtl None
s 1
f 17/17/38 18/18/39 19/19/40
f 19/19/40 20/20/41 17/17/38
f 17/17/38 20/20/41 21/21/42
f 22/22/43 23/23/43 24/24/43
f 23/23/44 25/25/45 26/26/46
f 18/18/47 27/27/47 28/28/47
f 19/19/48 18/18/48 28/28/48
f 27/27/49 25/25/49 28/28/49
f 20/20/41 19/19/40 29/29/50
f 19/19/51 30/30/52 29/29/53
f 27/27/54 17/17/54 26/26/54
f 20/20/55 29/29/55 22/22/55
f 21/21/56 20/20/56 24/24/56
f 20/20/57 22/22/57 24/24/57
f 21/21/42 26/26/58 17/17/38
f 25/25/45 23/23/44 30/30/59
f 23/23/60 22/22/60 30/30/60
f 21/21/61 24/24/61 26/26/61
f 24/24/62 23/23/62 26/26/62
f 18/18/63 17/17/63 27/27/63
f 22/22/64 29/29/64 30/30/64
f 30/30/52 19/19/51 28/28/65
f 25/25/66 30/30/66 28/28/66
f 26/26/67 25/25/67 27/27/67
o textured_simple_reoriented_hull_3
v -1.153600 0.831999 14.721399
v 2.065500 1.486599 14.700601
v 2.410600 -3.633001 14.705200
v -1.345500 -3.790401 14.666200
v 0.032600 2.546199 14.798800
v -0.635700 -4.943401 17.587999
v 0.446600 -5.820200 14.823601
v 1.245900 -5.632401 17.228401
v -1.479000 -0.207401 17.523800
v -1.447400 -3.168201 17.421400
v 2.475400 0.133999 17.614401
v -0.309300 2.387599 17.391399
v 2.346900 -3.629201 17.546400
v 1.074000 2.587199 17.087000
vt 0.102191 0.791663
vt 0.843687 0.847065
vt 0.913078 0.269814
vt 0.098577 0.251339
vt 0.416638 0.995285
vt 0.228618 0.092838
vt 0.486959 0.000000
vt 0.664932 0.024868
vt 0.038733 0.661113
vt 0.046426 0.310863
vt 0.926152 0.694931
vt 0.312006 0.961261
vt 0.915393 0.252332
vt 0.632635 1.000000
vn -0.4148 0.0347 -0.9092
vn 0.5040 0.3233 -0.8009
vn 0.2688 0.0007 -0.9632
vn -0.4804 -0.2442 -0.8424
vn 0.1687 0.6583 -0.7336
vn -0.1522 -0.7449 0.6496
vn -0.3087 -0.9348 0.1756
vn -0.1011 -0.6710 0.7345
vn -0.9941 0.0425 -0.0997
vn -0.9993 -0.0095 -0.0348
vn -0.0028 -0.0035 1.0000
vn -0.0074 -0.0007 1.0000
vn -0.0237 0.0093 0.9997
vn -0.0284 0.0637 0.9976
vn -0.2762 -0.0362 0.9604
vn 0.1075 -0.2132 0.9711
vn 0.0222 -0.0188 0.9996
vn -0.4326 -0.4428 -0.7853
vn 0.0988 0.9931 -0.0627
vn 0.8512 0.5115 0.1177
vn -0.9097 0.4125 0.0474
vn -0.8186 0.5697 -0.0731
vn 0.8748 -0.4840 0.0203
vn 0.7255 -0.6617 -0.1895
vn 0.9918 0.0668 -0.1085
vn 0.9992 -0.0345 0.0224
vn -0.7441 -0.6632 -0.0810
vn -0.9099 -0.4105 0.0591
vn -0.1334 0.9901 0.0430
vn 0.1643 0.2961 0.9409
usemtl None
s 1
f 31/31/68 32/32/69 33/33/70
f 31/31/68 33/33/70 34/34/71
f 32/32/69 31/31/68 35/35/72
f 36/36/73 37/37/74 38/38/75
f 39/39/76 31/31/68 34/34/71
f 40/40/77 39/39/77 34/34/77
f 36/36/78 41/41/79 39/39/80
f 41/41/81 42/42/81 39/39/81
f 40/40/82 36/36/82 39/39/82
f 36/36/73 38/38/75 43/43/83
f 41/41/79 36/36/78 43/43/84
f 34/34/71 33/33/70 37/37/85
f 35/35/72 44/44/86 32/32/69
f 44/44/87 41/41/87 32/32/87
f 42/42/88 31/31/88 39/39/88
f 31/31/89 42/42/89 35/35/89
f 33/33/90 43/43/90 38/38/90
f 37/37/91 33/33/91 38/38/91
f 33/33/70 32/32/69 41/41/92
f 43/43/93 33/33/93 41/41/93
f 37/37/85 36/36/94 34/34/71
f 36/36/95 40/40/95 34/34/95
f 44/44/86 35/35/72 42/42/96
f 41/41/97 44/44/97 42/42/97
o textured_simple_reoriented_hull_4
v 1.441100 -3.819001 17.818800
v 1.797100 -0.704001 17.852400
v 1.573000 -1.249401 21.423800
v -0.179300 -4.087601 17.801199
v -0.671600 -0.087001 17.833401
v 1.243500 0.813599 17.820200
v 0.048200 1.004199 17.813000
v 0.931800 -3.308201 21.570200
v -0.810800 -2.086401 17.985401
v -0.264000 -2.766401 21.501200
v -0.303300 -0.404201 21.548800
v 0.578900 1.174799 19.698801
v 0.876600 0.157399 21.552999
vt 0.828183 0.120453
vt 1.000000 0.683960
vt 0.861036 0.552978
vt 0.247457 0.068868
vt 0.063350 0.773182
vt 0.781103 0.934511
vt 0.333424 1.000000
vt 0.666698 0.189877
vt 0.000000 0.400163
vt 0.224112 0.271389
vt 0.227348 0.715029
vt 0.537342 1.000000
vt 0.643005 0.838156
vn 0.4755 -0.6122 -0.6318
vn 0.5205 -0.0503 -0.8524
vn 0.9925 -0.1139 0.0449
vn 0.1179 -0.6646 -0.7379
vn -0.0021 -0.0031 -1.0000
vn 0.0807 0.4644 -0.8819
vn -0.3974 0.7039 -0.5887
vn 0.1599 -0.9750 0.1545
vn -0.3996 -0.0418 -0.9157
vn -0.9476 -0.3071 0.0880
vn -0.4081 -0.8627 0.2987
vn -0.0463 -0.0123 0.9989
vn -0.0177 -0.0002 0.9998
vn -0.0672 -0.0212 0.9975
vn 0.9447 -0.2824 0.1667
vn -0.3487 0.9371 0.0133
vn -0.8193 0.5439 0.1814
vn -0.9915 0.0770 0.1049
vn -0.9885 -0.0195 0.1500
vn -0.0059 0.0049 1.0000
vn 0.1980 0.0080 0.9802
vn 0.4058 0.1176 0.9064
vn 0.8676 0.4027 0.2917
vn -0.3757 0.7857 0.4914
vn 0.8956 0.4346 0.0947
vn 0.8459 0.4925 0.2046
vn 0.9329 0.3427 0.1109
vn -0.7933 0.5949 0.1294
usemtl None
s 1
f 45/45/98 46/46/99 47/47/100
f 45/45/98 48/48/101 49/49/102
f 45/45/98 49/49/102 50/50/103
f 50/50/103 49/49/102 51/51/104
f 45/45/98 52/52/105 48/48/101
f 49/49/106 48/48/106 53/53/106
f 48/48/107 54/54/107 53/53/107
f 48/48/108 52/52/108 54/54/108
f 52/52/109 55/55/110 54/54/111
f 45/45/112 47/47/112 52/52/112
f 56/56/113 51/51/104 49/49/114
f 51/51/104 56/56/113 50/50/103
f 49/49/115 53/53/115 55/55/115
f 53/53/116 54/54/116 55/55/116
f 45/45/98 50/50/103 46/46/99
f 55/55/110 52/52/109 57/57/117
f 52/52/118 47/47/119 57/57/120
f 56/56/121 55/55/121 57/57/121
f 56/56/122 57/57/120 47/47/119
f 50/50/123 56/56/123 47/47/123
f 46/46/124 50/50/124 47/47/124
f 56/56/125 49/49/125 55/55/125
